<?xml version="1.0" encoding="UTF-8" standalone="no"?>
<!DOCTYPE svg PUBLIC "-//W3C//DTD SVG 1.1//EN" "http://www.w3.org/Graphics/SVG/1.1/DTD/svg11.dtd">
<svg width="100%" height="100%" viewBox="0 0 45 46" version="1.1" xmlns="http://www.w3.org/2000/svg" xmlns:xlink="http://www.w3.org/1999/xlink" xml:space="preserve" xmlns:serif="http://www.serif.com/" style="fill-rule:evenodd;clip-rule:evenodd;stroke-linejoin:round;stroke-miterlimit:2;">
    <g transform="matrix(1,0,0,1,-120.531,-17.307)">
        <g transform="matrix(0.557345,0,0,0.557345,3.83756,-99.5434)">
            <g id="rk_square_shape">
                <g transform="matrix(1.22333,0,0,1.22333,-475.693,-202.592)">
                    <path d="M601.514,369.994L615.117,383.554L606.618,383.554L593.029,370.006L606.993,356L615.465,356L601.514,369.994Z" style="fill:white;"/>
                </g>
                <g transform="matrix(1.22333,0,0,1.22333,-475.693,-202.592)">
                    <path d="M626,403.013L560,403.013L560,367L566,367L566,397.013L620,397.013L620,342.987L566,342.987L566,356.034C572.167,356.034 578.333,355.995 584.5,356.03L584.5,356C589.329,356 593.25,359.921 593.25,364.75C593.25,368.295 591.137,371.35 588.104,372.725L598.795,383.554L590.335,383.554L573.881,367L584.5,367L584.5,366.95C584.662,366.983 584.829,367 585,367C586.38,367 587.5,365.88 587.5,364.5C587.5,363.152 586.431,362.052 585.095,362.002L585.095,362.034L585.094,362.034L584.586,362.034C584.557,362.039 584.529,362.044 584.5,362.05L584.5,362.034L560,362.034L560,336.987L626,336.987L626,403.013Z" style="fill:white;"/>
                </g>
            </g>
        </g>
    </g>
</svg>
